<svg xmlns="http://www.w3.org/2000/svg" xmlns:xlink="http://www.w3.org/1999/xlink" viewBox="0 0 400 400" width="400" height="400" data-date-format="longDate">
  <image xlink:href="https://s3.us-east-1.amazonaws.com/accredible-api-templates/17215814446918171407195265563211.png" viewBox="0 0 786 120" width="380" height="58" x="-334" y="-55"/>
  <svg xmlns="http://www.w3.org/2000/svg" xmlns:xlink="http://www.w3.org/1999/xlink" viewBox="0 0 200 400" width="212" height="424" x="94" y="-12">
<path fill="#A4ACD6" d="M100,351.4c-3.4,0-6.6-1.1-9.3-3.2c-2.8-2.2-6.6-2.9-10.1-1.6c-1.7,0.6-3.4,0.9-5.2,0.9c-5,0-9.7-2.5-12.5-6.7  c-1.9-2.9-5.2-4.6-8.6-4.6c-0.3,0-0.4,0-0.5,0c-0.3,0-0.4,0-0.5,0c-6.7,0-12.7-4.5-14.5-11c-0.5-1.7-1.4-3.3-2.7-4.5  c-1.2-1.3-2.8-2.2-4.5-2.7c-6.5-1.8-11-7.8-11-14.5c0-0.1,0-0.3,0-0.4c0-0.3,0-0.4,0-0.5c0-3.6-1.7-6.9-4.6-8.8  c-4.2-2.8-6.7-7.5-6.7-12.5c0-1.8,0.3-3.5,0.9-5.2c0.4-1.2,0.6-2.4,0.6-3.6c0-2.3-0.8-4.6-2.2-6.4c-2.1-2.6-3.2-5.9-3.2-9.3V48.6  h189v208.2c0,3.4-1.1,6.7-3.2,9.3c-1.4,1.8-2.2,4.1-2.2,6.4c0,1.2,0.2,2.5,0.6,3.6c0.6,1.7,0.9,3.4,0.9,5.2c0,5-2.5,9.7-6.7,12.5  c-2.9,1.9-4.6,5.2-4.6,8.7c0,0.2,0,0.4,0,0.5c0,0.3,0,0.4,0,0.5c0,6.7-4.5,12.6-11,14.5c-1.7,0.5-3.3,1.4-4.5,2.7  c-1.3,1.3-2.2,2.8-2.7,4.5c-1.8,6.5-7.8,11-14.5,11c-0.1,0-0.2,0-0.4,0c-0.3,0-0.4,0-0.5,0c-3.6,0-6.9,1.7-8.8,4.6  c-2.8,4.2-7.5,6.7-12.5,6.7c-1.8,0-3.5-0.3-5.2-0.9c-3.5-1.3-7.2-0.6-10.1,1.6C106.6,350.3,103.4,351.4,100,351.4z"/>
<path fill="#5A61A7" d="M190,53.3H10.1v203.6c0,2.3,0.8,4.6,2.2,6.5c2.1,2.6,3.2,6,3.2,9.3c0,1.8-0.3,3.5-0.9,5.2  c-0.4,1.2-0.6,2.4-0.6,3.6c0,3.5,1.7,6.7,4.6,8.6c4.2,2.8,6.7,7.5,6.7,12.5c0,0.1,0,0.2,0,0.4s0,0.4,0,0.5c0,4.8,3.1,8.9,7.6,10.1  c2.5,0.7,4.8,2,6.6,3.9c1.8,1.8,3.2,4.1,3.8,6.5c1.3,4.5,5.4,7.6,10,7.6c0.3,0,0.4,0,0.5,0c0.3,0,0.4,0,0.5,0c5,0,9.7,2.5,12.5,6.7  c2.6,3.9,7.7,5.6,12.3,4c1.6-0.7,3.4-1,5.2-1c3.4,0,6.7,1.1,9.3,3.2c3.7,2.9,9.2,2.9,12.9,0c4.1-3.2,9.6-4.1,14.5-2.3  c4.6,1.7,9.6-0.1,12.3-4c2.8-4.2,7.5-6.7,12.5-6.7c0.1,0,0.3,0,0.4,0c0.3,0,0.4,0,0.5,0c4.8,0,8.9-3.1,10.1-7.6  c0.7-2.5,2-4.7,3.8-6.5c1.8-1.8,4.1-3.1,6.6-3.9c4.5-1.3,7.6-5.4,7.6-10c0-0.3,0-0.4,0-0.5c0-0.2,0-0.4,0-0.5c0-5,2.5-9.7,6.7-12.5  c2.9-1.9,4.6-5.2,4.6-8.6c0-1.2-0.2-2.4-0.6-3.6c-0.6-1.7-0.9-3.4-0.9-5.2c0-3.4,1.1-6.7,3.2-9.3c1.4-1.8,2.2-4.1,2.2-6.5V53.3z   M74.8,320.6l0.6,3.5l-3.2-1.6l-3.1,1.6l0.6-3.5l-2.6-2.5l3.5-0.5l1.6-3.2l1.6,3.2l3.5,0.5L74.8,320.6z M104,324.6l0.9,5.5l-4.9-2.6  l-4.9,2.6l0.9-5.5l-3.9-3.8l5.5-0.8l2.4-5l2.4,5l5.5,0.8L104,324.6z M130.9,320.6l0.6,3.5l-3.2-1.6l-3.1,1.6l0.6-3.5l-2.6-2.5  l3.6-0.5l1.5-3.2l1.6,3.2l3.5,0.5L130.9,320.6z"/>
</svg>
  <svg viewBox="0 0 200 200" width="200" height="200" style="font-size: 30px;font-family: &quot;Bebas Neue&quot;;font-weight: 400;" x="100" y="63">
    <defs>
      <path id="16823aad-3c58-4633-8785-833fc7485d1b_outer" d="M100,175c-41.4,0-75-33.6-75-75s33.6-75,75-75s75,33.6,75,75S141.4,175,100,175z" stroke-dasharray="5, 5" style="stroke: #737373;fill: none;"/>
      <path id="16823aad-3c58-4633-8785-833fc7485d1b_inner" d="M100,10c-49.6,0-90,40.4-90,90s40.4,90,90,90s90-40.4,90-90S149.6,10,100,10z" stroke-dasharray="5, 5" style="stroke: #737373;fill: none;"/>
    </defs>
    <text fill="#ffffff" text-anchor="middle" letter-spacing="0">
      <textPath xlink:href="#16823aad-3c58-4633-8785-833fc7485d1b_outer" startOffset="50%">Consistent Newb</textPath>
    </text>
  </svg>
  <svg xmlns="http://www.w3.org/2000/svg" xmlns:xlink="http://www.w3.org/1999/xlink" version="1.1" id="&#x421;&#x43B;&#x43E;&#x439;_1" viewBox="0 0 80 80" width="123" height="123" x="138" y="138">
<path fill="#dbd244" d="M76.61,15.74c-0.53-4.51-3.8-8.5-7.97-9.69c-2.36-0.67-4.85-0.41-6.99,0.57c1.11-1.51,2.52-2.34,2.54-2.34   c0.91-0.51,1.37-1.56,1.11-2.57C65.04,0.7,64.13,0,63.09,0H40H16.91c-1.04,0-1.95,0.7-2.21,1.71c-0.26,1.01,0.2,2.07,1.11,2.57   c0.02,0.01,1.45,0.84,2.55,2.36c-2.15-0.99-4.65-1.27-7.02-0.59c-4.17,1.19-7.45,5.18-7.97,9.69c-0.39,3.38,0.67,6.99,2.9,9.91   c1.93,2.52,4.71,4.55,8.04,5.86c0.38,0.14,0.78,0.28,1.17,0.41c-0.31,0.01-0.63,0.08-0.93,0.23c-1.12,0.54-1.88,1.64-2.1,3   c-0.23,1.44,0.21,2.9,1.15,3.8c1.1,1.05,2.61,1.41,3.93,1.41c0.49,0,0.96-0.05,1.35-0.14c0.76-0.16,1.47-0.44,2.09-0.83   c0.57,1.08,1.24,2.09,2.09,3c2.52,2.73,6.13,4.26,10.74,4.57v9.96l-9.09,8.64h-6.56c-1.26,0-2.28,1.02-2.28,2.28v9.88   c0,1.26,1.02,2.28,2.28,2.28h43.7c1.26,0,2.28-1.02,2.29-2.28v-9.88c0-1.26-1.02-2.28-2.28-2.28h-6.57l-9.09-8.64v-9.96   c4.61-0.32,8.22-1.85,10.74-4.57c0.84-0.91,1.51-1.92,2.08-2.99c0.62,0.39,1.32,0.67,2.08,0.82c0.41,0.09,0.88,0.14,1.37,0.14   c1.32,0,2.84-0.36,3.91-1.41c0.94-0.9,1.38-2.36,1.15-3.8c-0.21-1.36-0.98-2.46-2.1-3c-0.3-0.15-0.62-0.22-0.93-0.23   c0.4-0.12,0.79-0.26,1.17-0.41c3.33-1.31,6.11-3.34,8.04-5.86C75.95,22.73,77,19.12,76.61,15.74z M9.9,22.87   c-1.52-1.99-2.25-4.4-1.99-6.61c0.31-2.69,2.28-5.14,4.69-5.83c2.4-0.69,5.28,0.52,6.28,2.63c0.5,1.06,0.52,2.25,0.07,3.12   c-0.41,0.77-1.3,1.29-2.04,1.18c-0.56-0.08-1.13-0.73-1.07-1.21c0.16-1.24-0.71-2.39-1.96-2.56c-1.24-0.16-2.39,0.71-2.56,1.96   c-0.4,2.97,1.85,5.87,4.91,6.33c0.9,0.13,1.8,0.04,2.66-0.21c-0.17,2.13-0.28,4.33-0.25,6.51c-0.44-0.16-0.89-0.31-1.31-0.45   c-0.49-0.16-0.96-0.31-1.35-0.47C13.43,26.25,11.32,24.73,9.9,22.87z M19.13,34.88c-0.26,0.61-0.84,0.81-1.16,0.88   c-0.26,0.06-0.54,0.05-0.77,0.02c0.64-0.67,0.83-1.69,0.4-2.57c-0.15-0.32-0.37-0.58-0.63-0.79c0.68,0.24,1.29,0.5,1.7,0.81   c0.24,0.19,0.41,0.45,0.49,0.74c0.01,0.05,0.02,0.11,0.03,0.16C19.23,34.38,19.23,34.64,19.13,34.88z M59.57,75.44H20.43v-5.32   h39.14V75.44z M43.96,42.47c-0.01,0-0.01,0-0.02,0c-0.01,0-0.01,0-0.02,0c-0.05,0-0.09,0.01-0.14,0.01   c-0.11,0.01-0.21,0.01-0.32,0.03c-0.02,0-0.03,0.01-0.05,0.01c-0.13,0.03-0.26,0.07-0.38,0.12c0,0,0,0,0,0   c-0.13,0.06-0.26,0.13-0.38,0.21c0,0,0,0-0.01,0.01c-0.12,0.08-0.23,0.17-0.33,0.27c-0.01,0.01-0.02,0.02-0.03,0.04   c-0.09,0.09-0.17,0.19-0.25,0.3c-0.02,0.02-0.03,0.05-0.04,0.08c-0.06,0.1-0.12,0.2-0.17,0.3c-0.02,0.04-0.03,0.09-0.04,0.13   c-0.03,0.1-0.07,0.19-0.09,0.29c-0.01,0.06-0.01,0.13-0.02,0.19c-0.01,0.08-0.03,0.16-0.03,0.25c0,0.01,0,0.01,0,0.02   c0,0.01,0,0.01,0,0.02v13.14c0,0.01,0,0.03,0,0.04c0,0.07,0.01,0.14,0.02,0.21c0.01,0.08,0.01,0.15,0.03,0.23   c0.02,0.08,0.05,0.15,0.07,0.23c0.02,0.06,0.03,0.13,0.06,0.18c0.04,0.1,0.1,0.19,0.15,0.28c0.02,0.03,0.03,0.07,0.05,0.1   c0.07,0.1,0.14,0.19,0.23,0.27c0.02,0.02,0.03,0.04,0.05,0.06c0.01,0.01,0.02,0.03,0.04,0.04l6.32,6.01H31.33l6.32-6.01   c0.01-0.01,0.02-0.03,0.04-0.04c0.01-0.01,0.02-0.03,0.04-0.04c0.19-0.2,0.35-0.43,0.45-0.68c0.01-0.03,0.02-0.05,0.03-0.08   c0.04-0.11,0.08-0.22,0.1-0.33c0.01-0.07,0.02-0.13,0.02-0.2c0.01-0.08,0.02-0.16,0.02-0.24c0-0.01,0-0.03,0-0.04V44.75   c0-0.01,0-0.01,0-0.02c0-0.01,0-0.01,0-0.02c0-0.08-0.02-0.16-0.03-0.24c-0.01-0.06-0.01-0.13-0.02-0.19   c-0.02-0.09-0.05-0.18-0.08-0.27c-0.02-0.05-0.03-0.1-0.05-0.15c-0.04-0.09-0.09-0.17-0.13-0.25c-0.03-0.05-0.05-0.1-0.08-0.14   c-0.05-0.07-0.11-0.13-0.16-0.2c-0.04-0.05-0.08-0.1-0.12-0.14c-0.05-0.05-0.11-0.1-0.17-0.14c-0.06-0.05-0.11-0.09-0.17-0.13   c-0.06-0.04-0.12-0.06-0.18-0.1c-0.07-0.04-0.14-0.08-0.21-0.11c-0.06-0.03-0.13-0.04-0.19-0.06c-0.08-0.02-0.15-0.05-0.23-0.07   c-0.08-0.01-0.15-0.02-0.23-0.02c-0.07-0.01-0.14-0.02-0.21-0.02c-0.01,0-0.01,0-0.02,0c-0.01,0-0.01,0-0.02,0   c-4.44,0.07-7.59-0.97-9.64-3.18c-4.18-4.52-3.33-13.62-2.64-20.93c0.42-4.52,0.79-8.43-0.01-11.05c-0.32-1.03-0.77-1.95-1.29-2.75   H40h17.54c-0.52,0.8-0.97,1.72-1.29,2.75c-0.8,2.61-0.43,6.52-0.01,11.05c0.44,4.62,0.93,9.95,0.19,14.39   c-0.09,0.31-0.15,0.63-0.18,0.95c-0.48,2.2-1.3,4.13-2.64,5.59C51.56,41.5,48.4,42.54,43.96,42.47z M62.8,35.78   c-0.23,0.03-0.51,0.03-0.77-0.02c-0.32-0.06-0.9-0.27-1.16-0.88c-0.09-0.21-0.1-0.44-0.07-0.67c0.02-0.09,0.03-0.18,0.05-0.27   c0.09-0.28,0.25-0.53,0.49-0.71c0.41-0.31,1.03-0.57,1.7-0.81c-0.26,0.2-0.48,0.47-0.63,0.79C61.97,34.09,62.16,35.11,62.8,35.78z    M70.08,22.87c-1.42,1.86-3.52,3.37-6.08,4.38c-0.4,0.16-0.86,0.31-1.35,0.47c-0.42,0.13-0.85,0.28-1.29,0.44   c0.03-2.17-0.09-4.36-0.25-6.49c0.86,0.25,1.75,0.34,2.64,0.21c3.06-0.46,5.31-3.36,4.91-6.33c-0.16-1.25-1.31-2.13-2.56-1.96   c-1.25,0.16-2.13,1.31-1.96,2.56c0.07,0.48-0.5,1.12-1.07,1.21c-0.74,0.12-1.63-0.4-2.04-1.18c-0.46-0.87-0.43-2.06,0.07-3.12   c1-2.11,3.88-3.32,6.28-2.63s4.38,3.14,4.69,5.83C72.33,18.47,71.6,20.88,70.08,22.87z"/>
	<path fill="#dbd244" d="M49.76,18.2l-5.34-0.78l-2.39-4.84c-0.38-0.78-1.18-1.27-2.04-1.27s-1.66,0.49-2.04,1.27l-2.39,4.84   l-5.34,0.78c-0.86,0.12-1.57,0.72-1.84,1.55s-0.04,1.73,0.58,2.34l3.86,3.77l-0.91,5.32c-0.14,0.86,0.21,1.72,0.91,2.23   c0.7,0.51,1.63,0.57,2.4,0.17L40,31.07l4.78,2.51c0.33,0.17,0.7,0.26,1.06,0.26c0.47,0,0.94-0.15,1.32-0.43   c0.71-0.51,1.06-1.37,0.91-2.23l-0.91-5.32l3.86-3.77c0.62-0.61,0.85-1.51,0.58-2.34C51.33,18.93,50.62,18.32,49.76,18.2z    M43.14,23.42c-0.54,0.53-0.79,1.28-0.66,2.02l0.33,1.95l-1.75-0.92c-0.33-0.17-0.7-0.26-1.06-0.26s-0.73,0.09-1.05,0.27L37.2,27.4   l0.33-1.95c0.12-0.74-0.12-1.5-0.66-2.02l-1.41-1.38l1.95-0.28c0.75-0.11,1.39-0.58,1.72-1.25L40,18.75l0.88,1.76   c0.34,0.68,0.98,1.14,1.72,1.25l1.95,0.28L43.14,23.42z"/>
</svg>
</svg>
